<?xml version="1.0" encoding="UTF-8"?><svg id="Layer_2" xmlns="http://www.w3.org/2000/svg" viewBox="0 0 374.14 238.58"><g id="Layer_1-2"><g><rect x="93.09" y="144.71" width="43.97" height="2.46"/><rect x="50.13" y="161.07" width="86.94" height="2.46"/><rect y="177.02" width="137.06" height="2.46"/><rect x="75.56" y="193.27" width="61.5" height="2.46"/><rect x="62.14" y="209.35" width="74.92" height="2.46"/><rect x="93.3" y="225.52" width="43.97" height="2.46"/><rect x="137.06" y="120.42" width="54.85" height="2.46"/><rect x="137.06" y="136.61" width="54.85" height="2.46"/><rect x="62.14" y="128.52" width="74.92" height="2.46"/><rect x="137.06" y="152.77" width="54.85" height="2.46"/><rect x="137.06" y="168.94" width="54.85" height="2.46"/><rect x="137.06" y="185.1" width="54.85" height="2.46"/><rect x="137.06" y="201.26" width="54.85" height="2.46"/><rect x="137.06" y="217.42" width="54.85" height="2.46"/><rect x="137.06" y="233.58" width="54.85" height="2.46"/><path d="M374.14,48.44c0-26.71-21.73-48.44-48.44-48.44s-47.74,21.06-48.41,47.19h-23.99l-24.63,23.94v62l-22.72-15.24v120.69l89.97-60.34-19.76-13.26h36.18V96.88h61.8V48.44Zm-64.3,45.94h-30.08V49.69h30.08v44.69Zm-18.41,83.85l-82.98,55.65V122.58l20.21,13.56v28.84h43l19.76,13.26Zm-60.26-40.42l36.76,24.66h-36.76v-24.66Zm78.67,24.66h-37.41l-41.25-27.67v-62.62l23.14-22.49h22.94v47.19h32.58v65.59Zm61.8-68.09h-59.3V47.19h-32.55c.67-24.75,21-44.69,45.91-44.69s45.94,20.61,45.94,45.94v45.94Z"/></g></g></svg>