<?xml version="1.0" encoding="UTF-8"?><svg id="Layer_2" xmlns="http://www.w3.org/2000/svg" viewBox="0 0 312.31 224.94"><g id="Layer_1-2"><g><rect x="93.09" y="24.28" width="43.97" height="2.46"/><rect x="50.13" y="40.65" width="86.94" height="2.46"/><rect y="56.59" width="137.06" height="2.46"/><rect x="75.56" y="72.84" width="61.5" height="2.46"/><rect x="62.14" y="88.93" width="74.92" height="2.46"/><rect x="93.3" y="105.09" width="43.97" height="2.46"/><rect x="137.06" width="54.85" height="2.46"/><rect x="137.06" y="16.19" width="54.85" height="2.46"/><rect x="62.14" y="8.09" width="74.92" height="2.46"/><rect x="137.06" y="32.35" width="54.85" height="2.46"/><rect x="137.06" y="48.51" width="54.85" height="2.46"/><rect x="137.06" y="64.67" width="54.85" height="2.46"/><rect x="137.06" y="80.84" width="54.85" height="2.46"/><rect x="137.06" y="97" width="54.85" height="2.46"/><rect x="137.06" y="113.16" width="54.85" height="2.46"/></g><path d="M265.51,224.94h-96.88v-48.44c0-26.71,21.73-48.44,48.44-48.44s48.44,21.73,48.44,48.44v48.44Zm-94.38-2.5h91.88v-45.94c0-25.33-20.61-45.94-45.94-45.94s-45.94,20.61-45.94,45.94v45.94Z"/><path d="M222.34,194.31V73.62l89.97,60.35-89.97,60.35Zm2.5-116v111.31l82.98-55.65-82.98-55.65Z"/><path d="M290.92,117.92h-83.67V24.07L231.88,.14h59.05V117.92Zm-81.17-2.5h78.67V2.64h-55.53l-23.14,22.49V115.42Z"/></g></svg>