<?xml version="1.0" encoding="UTF-8"?><svg id="Layer_2" xmlns="http://www.w3.org/2000/svg" viewBox="0 0 323.35 231.7"><g id="Layer_1-2"><g><rect x="86.58" y="31.36" width="40.89" height="2.29"/><rect x="46.62" y="46.58" width="80.85" height="2.29"/><rect y="61.41" width="127.47" height="2.29"/><rect x="70.27" y="76.52" width="57.19" height="2.29"/><rect x="57.79" y="91.48" width="69.67" height="2.29"/><rect x="86.77" y="106.51" width="40.89" height="2.29"/><rect x="127.47" y="8.77" width="51.01" height="2.29"/><rect x="127.47" y="23.83" width="51.01" height="2.29"/><rect x="57.79" y="16.3" width="69.67" height="2.29"/><rect x="127.47" y="38.86" width="51.01" height="2.29"/><rect x="127.47" y="53.89" width="51.01" height="2.29"/><rect x="127.47" y="68.92" width="51.01" height="2.29"/><rect x="127.47" y="83.95" width="51.01" height="2.29"/><rect x="127.47" y="98.98" width="51.01" height="2.29"/><rect x="127.47" y="114.01" width="51.01" height="2.29"/></g><path d="M311.55,96.88h-96.88V48.44c0-26.71,21.73-48.44,48.44-48.44s48.44,21.73,48.44,48.44v48.44Zm-94.38-2.5h91.88V48.44c0-25.33-20.61-45.94-45.94-45.94s-45.94,20.61-45.94,45.94v45.94Z"/><path d="M233.38,166.3V45.61l89.97,60.35-89.97,60.34Zm2.5-116v111.3l82.98-55.65-82.98-55.65Z"/><path d="M264.36,231.7h-83.67v-93.85l24.63-23.94h59.05v117.79Zm-81.17-2.5h78.67V116.41h-55.53l-23.14,22.49v90.29Z"/></g></svg>