<?xml version="1.0" encoding="UTF-8"?><svg id="Layer_2" xmlns="http://www.w3.org/2000/svg" viewBox="0 0 355.53 241.33"><g id="Layer_1-2"><g><rect x="93.09" y="87.84" width="43.97" height="2.46"/><rect x="50.13" y="104.21" width="86.94" height="2.46"/><rect y="120.15" width="137.06" height="2.46"/><rect x="75.56" y="136.4" width="61.5" height="2.46"/><rect x="62.14" y="152.49" width="74.92" height="2.46"/><rect x="93.3" y="168.65" width="43.97" height="2.46"/><rect x="137.06" y="63.56" width="54.85" height="2.46"/><rect x="137.06" y="79.75" width="54.85" height="2.46"/><rect x="62.14" y="71.65" width="74.92" height="2.46"/><rect x="137.06" y="95.91" width="54.85" height="2.46"/><rect x="137.06" y="112.07" width="54.85" height="2.46"/><rect x="137.06" y="128.23" width="54.85" height="2.46"/><rect x="137.06" y="144.39" width="54.85" height="2.46"/><rect x="137.06" y="160.55" width="54.85" height="2.46"/><rect x="137.06" y="176.72" width="54.85" height="2.46"/></g><path d="M355.53,96.88h-96.88V48.44c0-26.71,21.73-48.44,48.44-48.44s48.44,21.73,48.44,48.44v48.44Zm-94.38-2.5h91.88V48.44c0-25.33-20.61-45.94-45.94-45.94s-45.94,20.61-45.94,45.94v45.94Z"/><path d="M226.77,241.33V120.64l89.97,60.35-89.97,60.35Zm2.5-116v111.31l82.98-55.65-82.98-55.65Z"/><path d="M293.06,180.09h-83.67V86.24l24.62-23.94h59.05v117.79Zm-81.17-2.5h78.67V64.81h-55.53l-23.14,22.49v90.29Z"/></g></svg>