<svg fill="none" height="124" viewBox="0 0 240 124" width="240" xmlns="http://www.w3.org/2000/svg"><g fill="#000"><path d="m134.426 58.067c2.743 0 5.195-.6193 7.247-1.7357l.139-5.2452h-2.414l-.823 4.2678c-1.203.5645-2.431.8299-3.617.8299-4.293 0-7.598-3.3366-7.598-10.3386 0-7.0019 3.563-10.3765 7.804-10.3765 1.005 0 2.03.2317 3.094.8005l.84 4.3098h2.414l-.139-5.2704c-2.237-1.2512-4.554-1.7105-6.837-1.7105-6.728 0-12.16 4.5585-12.16 12.2345s5.12 12.2344 12.054 12.2344z"/><path d="m147.168 55.5859-2.389.4593v1.4366h9.142v-1.4366l-2.389-.4424c-.038-1.8326-.063-3.6611-.063-5.4937v-13.0939l.139-4.946-.532-.3202-6.386 1.5799v1.3566l2.545.3496v15.0698c0 1.8242-.025 3.6526-.063 5.4768z"/><path d="m162.945 47.9858c-5.074 1.6431-6.298 3.3114-6.298 5.5485 0 2.8985 2.018 4.4404 4.66 4.4404 2.233 0 3.376-.9352 5.115-2.6963.401 1.6431 1.617 2.6289 3.482 2.6289 1.672 0 2.778-.5982 3.622-2.2286l-.819-.6952c-.401.5224-.735.771-1.216.771-.654 0-1.042-.4466-1.042-1.5756v-7.6592c0-4.5626-1.773-6.3405-5.846-6.3405-4.305 0-7.023 1.8158-7.445 4.6132.173 1.0195.878 1.5841 1.984 1.5841s1.992-.7542 2.195-2.4436l.409-1.9337c.557-.0927 1.038-.1264 1.473-.1264 2.283 0 3.073.8805 3.073 4.154v.9985c-1.216.3117-2.448.6656-3.347.9605zm3.347 5.9908c-1.528 1.0912-2.145 1.4324-3.056 1.4324-1.397 0-2.473-.7751-2.473-2.5825 0-1.3397.7-2.5952 3.064-3.5431.595-.257 1.498-.5561 2.465-.8384v5.5274z"/><path d="m180.004 36.9099c1.482 0 2.655-1.0406 2.655-2.5067s-1.173-2.5067-2.655-2.5067c-1.481 0-2.654 1.0195-2.654 2.5067s1.173 2.5067 2.654 2.5067z"/><path d="m184.326 56.0452-2.127-.4297c-.034-1.7442-.051-3.9771-.051-5.5064v-4.6469l.106-4.9207-.566-.3623-6.356 2.2202v1.306l2.524.316c.072 1.4029.105 2.4941.105 4.4236v1.6641c0 1.5209-.016 3.7411-.05 5.4811l-2.3.455v1.4366h8.719v-1.4366z"/><path d="m196.03 56.0449-2.076-.4255c-.034-1.7442-.051-3.9813-.051-5.5106v-5.2282c1.241-1.087 2.49-1.7653 3.828-1.7653 1.827 0 2.49.9774 2.49 3.8296v3.1681c0 1.5673-.017 3.7622-.051 5.4853l-2.228.4508v1.4366h8.589v-1.4366l-2.077-.4339c-.033-1.7273-.05-3.9307-.05-5.5064v-3.6652c0-.5561-.026-1.0701-.08-1.5462 1.342-1.1923 2.583-1.7779 3.882-1.7779 1.752 0 2.486.8174 2.486 3.7833v3.2102c0 1.5673-.016 3.7664-.05 5.4895l-2.165.4466v1.4366h8.576v-1.4366l-2.127-.4381c-.034-1.7231-.051-3.9265-.051-5.498v-3.7705c0-4.2636-1.612-6.1594-4.803-6.1594-2.127 0-4.132.9058-6.044 3.2019-.637-2.1908-2.093-3.2019-4.389-3.2019-2.144 0-4.145 1.1417-5.85 3.0881l-.253-2.7216-.566-.3623-5.879 2.2203v1.306l2.477.3159c.085 1.403.106 2.313.106 4.2425v1.841c0 1.5209-.017 3.7496-.051 5.4895l-2.271.4466v1.4366h8.682v-1.4366z"/><path d="m140.263 84.082c-.684-3.0291-1.891-4.55-4.896-5.026 4.339-.7247 6.12-3.1892 6.12-5.7423 0-3.7664-3.115-5.9992-8.572-5.9992h-10.606v1.6472l2.958.3202c.059 2.9701.064 5.9487.064 8.9104v1.5251c0 3.0081 0 5.9866-.06 8.9104l-2.958.3202v1.6473h10.594v-1.6473l-3.01-.3286c-.055-2.8522-.059-5.7507-.059-8.763h1.511c2.507 0 3.588.7879 4.111 3.3872l1.042 4.8829c.385 2.1823 1.748 2.8985 4.339 2.8985 1.338 0 2.039-.1264 3.204-.4297v-1.6473l-2.702-.3033-1.076-4.5711zm-8.365-5.9908h-2.064c0-3.1724 0-6.0624.063-8.9525h2.275c3.258 0 4.812 1.4871 4.812 4.3688 0 2.5446-1.444 4.5837-5.086 4.5837z"/><path d="m161.497 80.3708c0-4.2467-2.756-7.0651-6.893-7.0651-4.448 0-8.546 3.3745-8.546 8.9904s3.355 8.8051 8.272 8.8051c3.305 0 5.694-1.4619 7.053-4.0866l-1.018-.8889c-1.16 1.2807-2.515 2.1823-4.587 2.1823-2.942 0-5.069-1.9927-5.234-6.0119h10.729c.139-.5224.219-1.1459.219-1.9253zm-6.129.2612h-4.794c.278-4.1498 2.064-5.6285 3.764-5.6285 1.701 0 3.128 1.4787 3.128 3.6316 0 1.2807-.414 1.9969-2.102 1.9969z"/><path d="m177.949 73.7983h-3.229v1.4493l2.57.4592-3.52 10.1785-3.836-10.1953 2.693-.4424v-1.4493h-3.402-4.736-1.089v1.4493l1.836.3412 6.357 15.1498h2.072l5.753-15.0697 1.958-.4213v-1.4493h-1.245z"/><path d="m188.091 70.0364c1.482 0 2.655-1.0406 2.655-2.5067 0-1.4662-1.173-2.5068-2.655-2.5068-1.481 0-2.654 1.0196-2.654 2.5068 0 1.4871 1.173 2.5067 2.654 2.5067z"/><path d="m190.23 83.2356v-4.6469l.106-4.9207-.566-.3623-6.356 2.2202v1.306l2.524.316c.072 1.4029.105 2.4941.105 4.4236v1.6641c0 1.5209-.016 3.7411-.05 5.4811l-2.3.455v1.4366h8.719v-1.4366l-2.127-.4298c-.034-1.7441-.05-3.977-.05-5.5063z"/><path d="m210.971 80.3708c0-4.2467-2.756-7.0651-6.892-7.0651-4.449 0-8.547 3.3745-8.547 8.9904s3.356 8.8051 8.273 8.8051c3.304 0 5.693-1.4619 7.052-4.0866l-1.017-.8889c-1.161 1.2807-2.515 2.1823-4.588 2.1823-2.941 0-5.069-1.9927-5.233-6.0119h10.728c.14-.5224.22-1.1459.22-1.9253zm-6.128.2612h-4.795c.279-4.1498 2.064-5.6285 3.765-5.6285s3.127 1.4787 3.127 3.6316c0 1.2807-.413 1.9969-2.101 1.9969z"/><path d="m238.709 73.7983h-5.128v1.4493l2.321.3918-3.085 9.7699-3.47-9.7699 2.296-.3876v-1.4492h-8.175v1.4492l2.351.3623-3.516 9.9173-3.22-9.9299 2.406-.3497v-1.4492h-8.619v1.4492l1.794.2991 5.609 15.1877h1.942l4.334-11.8973c.739 2.3887 1.908 5.679 4.33 11.8973h1.942l5.255-15.116 1.924-.375v-1.4493z"/><path d="m79.9887 0h-56.4462l-23.5425 22.8427v89.5593h13.2991v11.602h79.9887v-112.4015h-13.2991zm-66.6896 110.013h-10.90602v-86.1634l22.12012-21.46085h53.0825v9.21375h-40.7541l-23.5425 22.8384v75.5681zm64.2966-96.026v96.022h-61.9035v-74.557l22.1201-21.465zm13.2991 0v107.624h-75.2026v-9.213h64.2965v-98.411h10.9103z"/></g></svg>