<svg fill="none" height="138" viewBox="0 0 229 138" width="229" xmlns="http://www.w3.org/2000/svg" xmlns:xlink="http://www.w3.org/1999/xlink"><clipPath id="a"><path d="m0 0h229v138h-229z"/></clipPath><g clip-path="url(#a)" fill="#000"><path d="m163.55 28.9824h-52.468v2.9418h52.468z"/><path d="m163.549 48.5161h-103.7365v2.9418h103.7365z"/><path d="m163.549 67.5474h-163.549v2.9418h163.549z"/><path d="m163.549 86.9414h-73.3869v2.9418h73.3869z"/><path d="m163.549 106.144h-89.3996v2.941h89.3996z"/><path d="m163.803 125.429h-52.467v2.942h52.467z"/><path d="m229 0h-65.451v2.9418h65.451z"/><path d="m229 19.3213h-65.451v2.9418h65.451z"/><path d="m163.549 9.66064h-89.3996v2.94176h89.3996z"/><path d="m229 38.6118h-65.451v2.9418h65.451z"/><path d="m229 57.9019h-65.451v2.9418h65.451z"/><path d="m229 77.1924h-65.451v2.9418h65.451z"/><path d="m229 96.4829h-65.451v2.9418h65.451z"/><path d="m229 115.768h-65.451v2.941h65.451z"/><path d="m229 135.059h-65.451v2.941h65.451z"/></g></svg>