<?xml version="1.0" encoding="UTF-8"?>
<svg xmlns="http://www.w3.org/2000/svg" id="Outline" viewBox="0 0 512 512" width="512" height="512"><path d="M104,295.281V408a24.028,24.028,0,0,0,24,24h2.215l-25.161,44.031a8,8,0,0,0,11.534,10.523L194.521,432H344a24.028,24.028,0,0,0,24-24V288h36.994l61.738,54.021a8,8,0,0,0,13.188-7.153l-6.7-46.9A24.03,24.03,0,0,0,496,264V144a24.028,24.028,0,0,0-24-24H279.281A135.721,135.721,0,0,0,152,32C77.01,32,16,93.01,16,168A135.721,135.721,0,0,0,104,295.281ZM207.363,256A104.818,104.818,0,0,0,240,223.363V256ZM152,256a88,88,0,1,1,88-88A88.1,88.1,0,0,1,152,256ZM352,408a8.009,8.009,0,0,1-8,8H192a8,8,0,0,0-4.588,1.446l-50.755,35.529,14.289-25.006A8,8,0,0,0,144,416H128a8.009,8.009,0,0,1-8-8V280a8.009,8.009,0,0,1,8-8H344a8.009,8.009,0,0,1,8,8ZM480,144V264a8.009,8.009,0,0,1-8,8h-8a8,8,0,0,0-7.92,9.132l4.948,34.639-47.76-41.792A8,8,0,0,0,408,272H366.624A24.039,24.039,0,0,0,344,256H256V144a8.009,8.009,0,0,1,8-8H472A8.009,8.009,0,0,1,480,144ZM152,48a119.743,119.743,0,0,1,110.044,72.086,23.92,23.92,0,0,0-14.619,6.582A103.995,103.995,0,1,0,110.668,263.425a23.92,23.92,0,0,0-6.582,14.619A120.015,120.015,0,0,1,152,48Z"/><path d="M211.831,160.977l-88-48A8,8,0,0,0,112,120V224a8,8,0,0,0,12.3,6.749l88-56a8,8,0,0,0-.464-13.772ZM128,209.427v-75.95l64.266,35.053Z"/><path d="M328,288H144a8,8,0,0,0,0,16H328a8,8,0,0,0,0-16Z"/><path d="M328,320H144a8,8,0,0,0,0,16H328a8,8,0,0,0,0-16Z"/><path d="M328,352H144a8,8,0,0,0,0,16H328a8,8,0,0,0,0-16Z"/><path d="M328,384H144a8,8,0,0,0,0,16H328a8,8,0,0,0,0-16Z"/><path d="M368.01,248a7.977,7.977,0,0,0,5.543-2.231c3.527-3.39,34.457-33.915,34.457-61.769a23.988,23.988,0,0,0-40-17.874,23.988,23.988,0,0,0-40,17.657c-.161,3.9.385,27.916,34.342,61.874A7.973,7.973,0,0,0,368.01,248Zm-24-64a8,8,0,0,1,16,0,8,8,0,0,0,16,0,8,8,0,0,1,16,0c0,14.621-14.3,33.667-23.989,44.436-23.393-25.676-24.01-42.72-24.021-43.984A3.194,3.194,0,0,0,344.01,184Z"/></svg>
