<svg fill="none" height="138" viewBox="0 0 140 138" width="140" xmlns="http://www.w3.org/2000/svg"><path d="m79.8099 0c-20.3625 0-38.3853 10.2004-49.2307 25.7633-18.236 10.2987-30.5792 29.8631-30.5792 52.259v59.9777h119.961v-18.045h19.832v-59.9773c0-33.0719-26.911-59.9777-59.9831-59.9777zm37.0511 134.906h-113.76153v-56.8837c0-19.0286 9.39133-35.898 23.77893-46.2295-4.4934 8.4073-7.0462 18.0009-7.0462 28.1849v59.9773h97.0288v14.946zm0-18.045h-93.9293v-56.8833c0-11.7966 3.6133-22.7677 9.7849-31.8639 8.1012-4.4442 17.3942-6.9751 27.2665-6.9751 31.3664 0 56.8779 25.5173 56.8779 56.8782v38.8331zm19.833 0h-16.733v-38.8332c0-33.0719-26.906-59.9777-59.9779-59.9777-8.1668 0-15.9565 1.64-23.0574 4.6137 10.4354-11.9824 25.7906-19.56433 42.8842-19.56433 31.3661 0 56.8781 25.51733 56.8781 56.87823v56.8833z" fill="#000"/></svg>