<svg fill="none" height="112" viewBox="0 0 399 112" width="399" xmlns="http://www.w3.org/2000/svg" xmlns:xlink="http://www.w3.org/1999/xlink"><clipPath id="a"><path d="m0 0h399v112h-399z"/></clipPath><g clip-path="url(#a)" fill="#000"><path d="m133.295 23.522h-42.7618v2.3875h42.7618z"/><path d="m133.295 39.3755h-84.547v2.3875h84.547z"/><path d="m133.295 54.8208h-133.295v2.3875h133.295z"/><path d="m133.295 70.561h-59.8116v2.3876h59.8116z"/><path d="m133.294 86.1455h-72.8614v2.3876h72.8614z"/><path d="m133.502 101.797h-42.7618v2.388h42.7618z"/><path d="m186.638 0h-53.343v2.38755h53.343z"/><path d="m186.638 15.6812h-53.343v2.3875h53.343z"/><path d="m133.294 7.84082h-72.8614v2.38758h72.8614z"/><path d="m186.638 31.3369h-53.343v2.3876h53.343z"/><path d="m186.638 46.9932h-53.343v2.3875h53.343z"/><path d="m186.638 62.6489h-53.343v2.3876h53.343z"/><path d="m186.638 78.3047h-53.343v2.3875h53.343z"/><path d="m186.638 93.9565h-53.343v2.3876h53.343z"/><path d="m186.638 109.612h-53.343v2.388h53.343z"/><path d="m218.666 49.608-2.964.32v1.6464h10.869v-1.6464l-3.221-.3495c-.055-2.9266-.059-5.8952-.059-9.0281h4.713l.482 3.3729h1.818v-8.2785h-1.818l-.456 3.0571h-4.735c0-2.8802.008-5.7352.063-8.5354h7.255l.74 4.2698h2.464l-.245-6.1394h-17.866v1.6464l2.96.32c.059 2.9687.063 5.9457.063 8.906v1.5243c0 3.0065 0 5.9836-.059 8.9059z"/><path d="m245.097 49.3763c.401 1.6423 1.619 2.6276 3.487 2.6276 1.675 0 2.782-.5979 3.628-2.2275l-.821-.6948c-.401.5221-.735.7706-1.217.7706-.655 0-1.044-.4464-1.044-1.5749v-7.6553c0-4.5604-1.776-6.3373-5.855-6.3373-4.312 0-7.035 1.8148-7.458 4.6108.174 1.0191.88 1.5833 1.987 1.5833 1.108 0 1.996-.7537 2.198-2.4423l.411-1.9327c.558-.0927 1.04-.1264 1.475-.1264 2.287 0 3.078.8801 3.078 4.1519v.998c-1.218.3116-2.452.6653-3.353.9601-5.081 1.6422-6.307 3.3097-6.307 5.5456 0 2.8971 2.02 4.4383 4.667 4.4383 2.236 0 3.382-.9348 5.124-2.695zm-2.605-5.992c.597-.2569 1.501-.5558 2.469-.838v5.5247c-1.53 1.0906-2.147 1.4317-3.06 1.4317-1.4 0-2.478-.7748-2.478-2.5813 0-1.339.702-2.5939 3.069-3.5413z"/><path d="m269.595 47.7003-1.04-.7537c-1.053 1.4569-2.579 2.337-4.439 2.337-3.129 0-5.285-2.316-5.285-6.5437 0-4.6193 2.199-6.7542 4.731-6.7542.431 0 .862.0421 1.302.1306l.448 2.097c.207 1.6885 1.015 2.4675 2.291 2.4675 1.074 0 1.708-.4969 1.987-1.5664-.355-2.6992-2.959-4.8214-6.392-4.8214-4.735 0-8.802 3.3097-8.802 8.9354s3.509 8.8512 8.32 8.8512c3.323 0 5.72-1.4865 6.879-4.3709z"/><path d="m283.575 49.7679-.837-.8969c-.799.5896-1.437.8801-2.147.8801-1.121 0-1.882-.758-1.882-2.4928v-10.3587h4.266v-2.1223h-4.228l.14-4.8466h-2.833l-1.344 4.7961-2.854.3664v1.8064h2.609v7.4995c0 1.3685-.034 2.2065-.034 3.2424 0 3.0865 1.695 4.4298 4.515 4.4298 2.173 0 3.72-.8464 4.629-2.3034z"/><path d="m294.034 41.3672h-8.62v2.7076h8.62z"/><path d="m317.447 50.4331.139-5.2425h-2.418l-.825 4.2656c-1.204.5643-2.435.8296-3.623.8296-4.299 0-7.609-3.335-7.609-10.3335 0-6.9984 3.568-10.3713 7.817-10.3713 1.006 0 2.033.2316 3.098.8001l.842 4.3077h2.418l-.14-5.2678c-2.24-1.2506-4.561-1.7096-6.848-1.7096-6.739 0-12.18 4.5562-12.18 12.2283 0 7.6722 5.128 12.2283 12.074 12.2283 2.748 0 5.204-.619 7.259-1.7349z"/><path d="m327.292 26.1828-.533-.32-6.29 1.5791v1.3559l2.549.3495v15.0621c0 1.5202-.017 3.7435-.051 5.4826l-2.295.4505v1.4359h8.696v-1.4359l-2.059-.4211c-.034-1.7433-.051-3.9834-.051-5.512v-4.994c1.454-1.3391 2.757-2.0002 4.088-2.0002 1.763 0 2.414.9096 2.414 3.6719v3.3181c0 1.5665-.017 3.7645-.051 5.491l-2.232.4463v1.4359h8.709v-1.4359l-2.131-.4295c-.033-1.7264-.05-3.9329-.05-5.5036v-3.6634c0-4.333-1.755-6.2573-4.824-6.2573-2.131 0-4.19 1.0274-6.029 3.1076v-6.27z"/><path d="m358.643 47.9911-1.018-.8884c-1.163 1.2801-2.52 2.1812-4.596 2.1812-2.946 0-5.077-1.9918-5.242-6.0089h10.747c.139-.5221.219-1.1453.219-1.9244 0-4.2445-2.76-7.0615-6.903-7.0615-4.456 0-8.561 3.3728-8.561 8.9859s3.361 8.8007 8.286 8.8007c3.31 0 5.703-1.4612 7.064-4.0846zm-7.055-12.0093c1.741 0 3.132 1.478 3.132 3.6298 0 1.2801-.414 1.9959-2.105 1.9959h-4.802c.279-4.1477 2.067-5.6257 3.771-5.6257z"/><path d="m377.444 47.7003-1.04-.7537c-1.053 1.4569-2.579 2.337-4.439 2.337-3.128 0-5.284-2.316-5.284-6.5437 0-4.6193 2.198-6.7542 4.73-6.7542.432 0 .863.0421 1.303.1306l.448 2.097c.207 1.6885 1.014 2.4675 2.291 2.4675 1.074 0 1.708-.4969 1.987-1.5664-.355-2.6992-2.959-4.8214-6.392-4.8214-4.735 0-8.802 3.3097-8.802 8.9354s3.509 8.8512 8.32 8.8512c3.323 0 5.72-1.4865 6.878-4.3709z"/><path d="m391.293 40.1586 3.547-3.4571 3.225-.4716v-1.4485h-8.197v1.4485l2.507.5263-5.88 5.9079v-11.5378l.139-4.9435-.533-.32-6.396 1.5791v1.3559l2.549.3495v15.0621c0 1.6254-.017 3.7014-.055 5.4699l-2.405.4632v1.4359h9.119v-1.4359l-2.364-.4379c-.029-1.5328-.05-3.3097-.054-4.8762l1.851-1.8064 4.705 8.5564h5.944v-1.4359l-2.308-.5011-5.394-9.487z"/><path d="m218.666 82.718-2.964.32v1.6465h10.624v-1.6465l-2.976-.32c-.059-2.9686-.063-5.9499-.063-8.9228v-1.5075c0-3.0065 0-5.9878.059-8.9101l2.976-.32v-1.6465h-10.624v1.6465l2.96.32c.059 2.9686.063 5.9457.063 8.9059v1.5244c0 3.0065 0 5.9836-.059 8.9059z"/><path d="m242.217 67.3989c-2.122 0-4.16 1.0148-5.99 3.0697l-.254-2.7075-.566-.3622-5.889 2.2191v1.3054l2.481.3158c.072 1.4022.106 2.3118.106 4.2403v1.8402c0 1.5201-.017 3.7476-.051 5.4867l-2.274.4464v1.4358h8.696v-1.4358l-2.08-.4253c-.034-1.7433-.051-3.9793-.051-5.5078v-5.2341c1.391-1.1748 2.701-1.7601 3.961-1.7601 1.75 0 2.456.9221 2.456 3.6718v3.3182c0 1.5664-.016 3.7645-.05 5.4909l-2.232.4464v1.4358h8.708v-1.4358l-2.13-.4296c-.034-1.7264-.051-3.9329-.051-5.5035v-3.6635c0-4.3329-1.742-6.2573-4.781-6.2573z"/><path d="m265.481 79.762c0-2.396-1.34-4.1351-4.768-5.2762l-1.391-.4379c-2.41-.8001-3.107-1.436-3.107-2.7034 0-1.3685 1.086-2.1897 2.963-2.1897.841 0 1.526.1432 2.194.4253l.643 2.9392h2.304l.194-3.6971c-1.67-.9138-3.251-1.4233-5.246-1.4233-4.338 0-6.718 2.4297-6.718 5.3141 0 2.5139 1.615 4.1014 4.262 4.973l1.763.5727c2.27.7411 3.12 1.4906 3.12 2.7918 0 1.5117-1.193 2.3791-3.556 2.3791-1.027 0-1.906-.1853-2.748-.5348l-.642-3.2507h-2.359l.025 4.0676c1.788.9812 3.538 1.4738 5.678 1.4738 4.739 0 7.394-2.257 7.394-5.4193z"/><path d="m268.284 70.9234 2.528.3158c.072 1.4022.106 2.4928.106 4.4214v1.6633c0 1.5201-.017 3.7392-.051 5.4783l-2.304.4548v1.4359h8.734v-1.4359l-2.13-.4295c-.034-1.7433-.051-3.9751-.051-5.5036v-4.6446l.106-4.9182-.567-.3622-6.367 2.2191v1.3054z"/><path d="m275.623 61.6217c0-1.4865-1.175-2.5055-2.659-2.5055s-2.659 1.019-2.659 2.5055c0 1.4864 1.175 2.5054 2.659 2.5054s2.659-1.0401 2.659-2.5054z"/><path d="m280.024 88.6844c0 2.3328 1.962 4.1897 7.42 4.1897 6.248 0 9.486-2.9897 9.486-6.291 0-2.9433-1.834-4.8129-6.417-4.8129h-4.38c-1.577 0-2.042-.5685-2.042-1.4486 0-.7369.207-1.2969.656-1.9285.845.2568 1.822.3916 2.908.3916 4.295 0 6.849-2.2402 6.849-5.6762 0-1.1412-.258-2.1349-.74-2.9561h3.42v-2.4465l-.541-.3495-3.974 1.5202c-1.167-.9601-2.854-1.4781-4.989-1.4781-4.316 0-6.869 2.2276-6.869 5.7142 0 2.2107.981 3.8739 2.773 4.813-1.738 1.5706-2.549 2.8675-2.549 4.215s.702 2.2318 2.194 2.7497c-2.296 1.0906-3.2 2.2991-3.2 3.8024zm7.678-19.7573c1.881 0 2.929 1.6127 2.929 4.0887s-1.078 4.2361-3.044 4.2361c-1.965 0-2.883-1.6254-2.883-4.1477s1.091-4.1771 2.993-4.1771zm.08 22.1111c-2.98 0-4.621-.9011-4.621-3.0992 0-1.0064.288-1.7348.968-2.6233.656.1432 1.45.1979 2.309.1979h3.923c2.236 0 3.065 1.0906 3.065 2.3833 0 1.756-1.936 3.1371-5.644 3.1371z"/><path d="m306.087 59.2927-.533-.32-6.29 1.579v1.3559l2.549.3495v15.0622c0 1.5201-.017 3.7434-.051 5.4825l-2.295.4506v1.4359h8.696v-1.4359l-2.059-.4211c-.034-1.7433-.051-3.9835-.051-5.512v-4.9941c1.454-1.339 2.756-2.0001 4.088-2.0001 1.763 0 2.414.9095 2.414 3.6718v3.3182c0 1.5664-.017 3.7645-.051 5.4909l-2.232.4464v1.4359h8.709v-1.4359l-2.131-.4295c-.034-1.7265-.05-3.933-.05-5.5036v-3.6634c0-4.333-1.755-6.2573-4.824-6.2573-2.131 0-4.19 1.0274-6.029 3.1076v-6.27z"/><path d="m332.674 82.8778-.837-.8969c-.799.5895-1.438.8801-2.148.8801-1.12 0-1.881-.758-1.881-2.4929v-10.3586h4.266v-2.1223h-4.228l.139-4.8467h-2.832l-1.344 4.7962-2.854.3663v1.8065h2.608v7.4995c0 1.3685-.033 2.2065-.033 3.2423 0 3.0866 1.695 4.4298 4.515 4.4298 2.173 0 3.72-.8463 4.629-2.3033z"/><path d="m343.378 74.4858-1.391-.4379c-2.409-.8001-3.107-1.436-3.107-2.7034 0-1.3685 1.086-2.1897 2.963-2.1897.842 0 1.527.1432 2.195.4253l.638 2.9392h2.304l.194-3.6971c-1.669-.9138-3.251-1.4233-5.246-1.4233-4.337 0-6.718 2.4297-6.718 5.3141 0 2.5139 1.615 4.1014 4.262 4.973l1.763.5727c2.27.7411 3.12 1.4906 3.12 2.7918 0 1.5117-1.193 2.3791-3.556 2.3791-1.027 0-1.906-.1853-2.748-.5348l-.642-3.2507h-2.359l.025 4.0676c1.788.9812 3.539 1.4738 5.678 1.4738 4.739 0 7.394-2.257 7.394-5.4193 0-2.396-1.34-4.1351-4.769-5.2762z"/></g></svg>