<svg fill="none" height="107" viewBox="0 0 240 107" width="240" xmlns="http://www.w3.org/2000/svg"><g fill="#000"><path d="m62.4097.189453c-15.7372 0-29.6661 7.876247-38.048 19.893247-14.0937 7.9522-23.633184 23.0589-23.633184 40.352v46.3123h92.711784v-13.9336h15.3277v-46.312c0-25.5366-20.7987-46.311947-46.3583-46.311947zm28.6352 104.168547h-87.92096v-43.9233c0-14.693 7.25806-27.7188 18.37756-35.6964-3.4727 6.4918-5.4456 13.8995-5.4456 21.7631v46.312h74.989v11.5396zm0-13.9337h-72.5936v-43.9229c0-9.1087 2.7925-17.5801 7.5623-24.6037 6.261-3.4317 13.4431-5.3859 21.0729-5.3859 24.2416 0 43.9584 19.7032 43.9584 43.9187v29.9854zm15.3271 0h-12.9317v-29.9854c0-25.5366-20.7941-46.312-46.3538-46.312-6.3117 0-12.332 1.2663-17.8199 3.5625 8.065-9.25226 19.9323-15.10668 33.1431-15.10668 24.2415 0 43.9583 19.70328 43.9583 43.91868v43.9229z"/><path d="m143.862 49.0211h2.898v-1.6504l-2.898-.4432v-9.8896l-.178-6.9054 7.398 18.8928h2.226l6.988-18.8591-.042 8.3321c-.009 2.6846-.004 5.6097-.059 8.539l-2.784.3377v1.6503h10.38v-1.6503l-2.962-.3208c-.059-2.9589-.059-5.9431-.059-8.9273v-1.528c0-2.9968 0-5.9852.059-8.9314l2.894-.3208v-1.6504h-7.875l-6.48 17.5168-6.853-17.5168h-7.833v1.6504l3.131.3799v19.2052l-3.283.4432v1.6503h5.323z"/><path d="m185.849 45.4243-1.018-.8906c-1.162 1.2832-2.518 2.1865-4.592 2.1865-2.945 0-5.074-1.9965-5.239-6.0233h10.739c.14-.5234.22-1.1481.22-1.929 0-4.2546-2.759-7.0784-6.899-7.0784-4.453 0-8.555 3.3809-8.555 9.0074s3.359 8.8217 8.28 8.8217c3.308 0 5.704-1.4646 7.06-4.0943zm-7.051-12.038c1.741 0 3.131 1.4815 3.131 3.6384 0 1.2832-.414 2.0007-2.104 2.0007h-4.8c.279-4.1576 2.066-5.6391 3.769-5.6391z"/><path d="m196.618 49.5155c2.087 0 3.646-.7936 4.93-2.3595l.27 2.2413 6.147-.3757v-1.4393l-2.315-.4516v-18.6143l.14-4.9554-.533-.3208-6.43 1.5829v1.3591l2.742.3504v7.2768c-1.255-1.4689-2.598-2.1273-4.432-2.1273-4.148 0-7.625 3.5202-7.625 9.0623s2.965 8.7669 7.101 8.7669zm1.732-15.3642c1.031 0 1.956.3883 3.063 1.3296v10.0922c-.925.9371-1.88 1.4436-3.093 1.4436-2.501 0-4.305-2.0725-4.305-6.3356 0-4.4826 1.952-6.5256 4.335-6.5256z"/><path d="m215.045 28.4106c1.483 0 2.657-1.0426 2.657-2.5115 0-1.4688-1.174-2.5114-2.657-2.5114s-2.657 1.0215-2.657 2.5114c0 1.49 1.174 2.5115 2.657 2.5115z"/><path d="m212.945 47.1267-2.302.4558v1.4394h8.728v-1.4394l-2.129-.4305c-.034-1.7475-.051-3.9846-.051-5.5168v-4.6556l.106-4.9301-.566-.363-6.363 2.2244v1.3085l2.522.3166c.072 1.4056.106 2.4988.106 4.432v1.6672c0 1.5238-.017 3.7482-.051 5.4915z"/><path d="m238.606 46.5188c-.401.5234-.735.7725-1.216.7725-.655 0-1.044-.4474-1.044-1.5787v-7.6736c0-4.5712-1.774-6.3525-5.851-6.3525-4.309 0-7.03 1.8192-7.453 4.6219.174 1.0215.879 1.5871 1.986 1.5871s1.994-.7555 2.197-2.4481l.41-1.9374c.557-.0929 1.039-.1267 1.474-.1267 2.286 0 3.076.8822 3.076 4.1619v1.0003c-1.217.3124-2.451.6669-3.35.9624-5.079 1.6462-6.304 3.3176-6.304 5.5589 0 2.904 2.02 4.4489 4.664 4.4489 2.235 0 3.38-.937 5.121-2.7014.401 1.6462 1.618 2.6339 3.485 2.6339 1.673 0 2.78-.5994 3.625-2.2329zm-6.421-1.0088c-1.53 1.0933-2.146 1.4352-3.059 1.4352-1.398 0-2.476-.7767-2.476-2.5875 0-1.3422.702-2.6001 3.068-3.5498.595-.2574 1.499-.5571 2.467-.8399v5.5378z"/><path d="m160.808 58.8779h-2.125-2.096-3.65v1.7011l2.945.3883-5.302 15.6765-5.4-15.7356 3.186-.3292v-1.7011h-3.883-4.888-1.677v1.6546l2.374.2575 7.888 21.5731h2.442l7.351-21.4169 2.835-.4137z"/><path d="m175.299 80.4837c-.655 0-1.044-.4475-1.044-1.5787v-7.6736c0-4.5713-1.774-6.3525-5.851-6.3525-4.309 0-7.03 1.8192-7.452 4.6219.173 1.0215.878 1.5871 1.985 1.5871s1.994-.7556 2.197-2.4482l.41-1.9374c.558-.0928 1.039-.1266 1.474-.1266 2.286 0 3.076.8822 3.076 4.1618v1.0004c-1.217.3124-2.45.6669-3.35.9624-5.078 1.6461-6.304 3.3176-6.304 5.5589 0 2.904 2.02 4.4489 4.665 4.4489 2.234 0 3.379-.9371 5.12-2.7014.401 1.6462 1.618 2.6338 3.485 2.6338 1.673 0 2.78-.5993 3.625-2.2328l-.819-.6965c-.402.5234-.736.7725-1.217.7725zm-5.205-1.7855c-1.529 1.0932-2.146 1.4351-3.059 1.4351-1.398 0-2.475-.7766-2.475-2.5874 0-1.3423.701-2.6001 3.067-3.5498.595-.2575 1.499-.5572 2.467-.84v5.5379z"/><path d="m195.912 70.4086.106-4.947-.457-.363-6.02.8062v1.2959l2.218.4938-.106 10.0753c-1.254 1.1988-2.695 1.9965-4.017 1.9965-1.563 0-2.375-.8948-2.375-3.5498v-5.8079l.178-4.947-.456-.363-6.143.7429v1.3592l2.269.498-.11 8.6782c-.047 4.6431 1.842 6.3314 4.761 6.3314 2.226 0 4.284-1.0974 5.986-3.2543l.292 3.0897 6.003-.3208v-1.4393l-2.129-.4517z"/><path d="m207.491 74.8245v-13.1187l.139-4.9553-.532-.3208-6.392 1.5828v1.3592l2.548.3503v15.0982c0 1.8277-.026 3.6596-.064 5.4872l-2.391.4601v1.4394h9.151v-1.4394l-2.391-.4432c-.038-1.8361-.064-3.668-.064-5.5041z"/><path d="m220.762 80.3786c-1.12 0-1.881-.7597-1.881-2.4988v-10.3834h4.263v-2.1274h-4.224l.139-4.8583h-2.831l-1.343 4.8077-2.852.3672v1.8108h2.607v7.5174c0 1.3718-.034 2.2118-.034 3.2501 0 3.094 1.694 4.4405 4.512 4.4405 2.172 0 3.718-.8485 4.626-2.3089l-.836-.899c-.799.5909-1.437.8821-2.146.8821z"/></g></svg>