<svg fill="none" height="115" viewBox="0 0 261 115" width="261" xmlns="http://www.w3.org/2000/svg" xmlns:xlink="http://www.w3.org/1999/xlink"><clipPath id="a"><path d="m0 0h261v115h-261z"/></clipPath><g clip-path="url(#a)" fill="#000"><path d="m148.058 52.8832h2.901v-1.6448l-2.901-.4417v-9.8564l-.177-6.8823 7.404 18.8294h2.233l6.995-18.7957-.042 8.3041c-.013 2.6755-.005 5.5908-.06 8.5103l-2.786.3365v1.6448h10.39v-1.6448l-2.964-.3197c-.06-2.9489-.06-5.9231-.06-8.8973v-1.5228c0-2.9868 0-5.9652.06-8.9015l2.896-.3197v-1.6449h-7.882l-6.487 17.458-6.86-17.458h-7.84v1.6449l3.133.3786v19.1407l-3.285.4417v1.6448h5.328z"/><path d="m183.018 53.3748c3.312 0 5.705-1.4598 7.067-4.0806l-1.019-.8876c-1.163 1.2789-2.521 2.1791-4.597 2.1791-2.948 0-5.079-1.9898-5.244-6.003h10.75c.14-.5217.22-1.1443.22-1.9225 0-4.2404-2.762-7.0547-6.906-7.0547-4.457 0-8.563 3.3696-8.563 8.9772s3.362 8.7921 8.288 8.7921zm.005-16.074c1.742 0 3.133 1.4766 3.133 3.6262 0 1.2789-.414 1.994-2.106 1.994h-4.804c.279-4.1436 2.068-5.6202 3.772-5.6202z"/><path d="m200.865 53.3755c2.089 0 3.65-.7909 4.935-2.3516l.271 2.2338 6.153-.3744v-1.4345l-2.318-.4501v-18.5518l.14-4.9387-.533-.3197-6.436 1.5775v1.3546l2.744.3491v7.2525c-1.256-1.464-2.601-2.1202-4.436-2.1202-4.153 0-7.633 3.5084-7.633 9.0319 0 5.5234 2.964 8.7374 7.109 8.7374zm1.738-15.3126c1.032 0 1.958.3871 3.066 1.3252v10.0583c-.926.9339-1.882 1.4387-3.096 1.4387-2.503 0-4.309-2.0655-4.309-6.3143 0-4.4676 1.954-6.5037 4.339-6.5037z"/><path d="m217.26 43.864v1.6617c0 1.5186-.017 3.7356-.05 5.473l-2.305.4543v1.4345h8.737v-1.4345l-2.132-.4291c-.034-1.7416-.05-3.9712-.05-5.4982v-4.6401l.105-4.9135-.566-.3617-6.369 2.2169v1.3041l2.529.3155c.072 1.4009.105 2.4904.105 4.4171z"/><path d="m219.307 32.342c1.485 0 2.66-1.0391 2.66-2.503 0-1.464-1.175-2.5031-2.66-2.5031-1.484 0-2.66 1.0181-2.66 2.5031 0 1.4849 1.176 2.503 2.66 2.503z"/><path d="m233.114 43.4055c-5.083 1.6406-6.309 3.3065-6.309 5.5403 0 2.8942 2.021 4.4339 4.668 4.4339 2.237 0 3.384-.9339 5.126-2.6923.402 1.6406 1.62 2.625 3.489 2.625 1.674 0 2.782-.5974 3.628-2.2254l-.82-.6941c-.402.5216-.736.7698-1.218.7698-.656 0-1.045-.4459-1.045-1.5733v-7.6479c0-4.5559-1.776-6.3311-5.857-6.3311-4.313 0-7.037 1.8131-7.46 4.6063.174 1.0181.88 1.5818 1.988 1.5818s1.996-.753 2.199-2.4399l.41-1.9309c.558-.0926 1.041-.1262 1.476-.1262 2.288 0 3.079.8792 3.079 4.1478v.997c-1.218.3113-2.453.6647-3.354.9592zm3.354 5.9778c-1.531 1.0895-2.149 1.4303-3.062 1.4303-1.4 0-2.478-.7741-2.478-2.5788 0-1.3377.702-2.5913 3.07-3.5379.596-.2566 1.501-.5553 2.47-.8371v5.5193z"/><path d="m161.062 79.4486c-.685-3.0246-1.894-4.5433-4.905-5.0186 4.347-.7236 6.131-3.1845 6.131-5.7296 0-3.7609-3.12-5.9904-8.588-5.9904h-10.628v1.6448l2.965.3197c.059 2.9658.063 5.9399.063 8.8973v1.5228c0 3.0037 0 5.9778-.059 8.8973l-2.965.3197v1.6449h10.615v-1.6449l-3.015-.3281c-.055-2.848-.059-5.7422-.059-8.75h1.514c2.512 0 3.594.7866 4.119 3.3822l1.044 4.8756c.385 2.1791 1.751 2.8943 4.347 2.8943 1.341 0 2.043-.1262 3.21-.4291v-1.6449l-2.706-.3029-1.079-4.5643zm-8.382-5.982h-2.068c0-3.1677 0-6.0535.064-8.9393h2.279c3.265 0 4.821 1.485 4.821 4.3624 0 2.5409-1.446 4.5769-5.096 4.5769z"/><path d="m182.338 75.7383c0-4.2404-2.762-7.0547-6.906-7.0547-4.458 0-8.564 3.3696-8.564 8.9772s3.362 8.7921 8.289 8.7921c3.311 0 5.709-1.4597 7.066-4.0805l-1.019-.8877c-1.163 1.2789-2.52 2.1791-4.597 2.1791-2.947 0-5.079-1.9898-5.243-6.003h10.749c.14-.5216.22-1.1442.22-1.9225zm-6.141.2608h-4.804c.279-4.1436 2.068-5.6202 3.772-5.6202 1.705 0 3.134 1.4766 3.134 3.6262 0 1.2789-.415 1.994-2.106 1.994z"/><path d="m198.822 69.1797h-3.231v1.4471l2.571.4543-3.522 10.1636-3.849-10.1804 2.699-.4375v-1.4471h-3.409-4.745-1.091v1.4471l1.844.3366 6.364 15.1274h2.077l5.764-15.0475 1.966-.4165v-1.4471h-1.251z"/><path d="m206.324 62.9161c0 1.464 1.176 2.503 2.66 2.503 1.485 0 2.66-1.039 2.66-2.503 0-1.4639-1.175-2.503-2.66-2.503-1.484 0-2.66 1.018-2.66 2.503z"/><path d="m211.132 78.5989v-4.64l.106-4.9135-.567-.3618-6.368 2.2169v1.3041l2.524.3156c.072 1.4008.106 2.4903.106 4.417v1.6617c0 1.5186-.017 3.7356-.051 5.473l-2.304.4543v1.4345h8.737v-1.4345l-2.132-.4291c-.034-1.7416-.051-3.9711-.051-5.4982z"/><path d="m231.914 75.7383c0-4.2404-2.762-7.0547-6.906-7.0547-4.457 0-8.564 3.3696-8.564 8.9772s3.362 8.7921 8.289 8.7921c3.311 0 5.709-1.4597 7.067-4.0805l-1.02-.8877c-1.163 1.2789-2.52 2.1791-4.596 2.1791-2.948 0-5.079-1.9898-5.244-6.003h10.75c.139-.5216.219-1.1442.219-1.9225zm-6.141.2608h-4.804c.279-4.1436 2.068-5.6202 3.772-5.6202 1.705 0 3.134 1.4766 3.134 3.6262 0 1.2789-.414 1.994-2.106 1.994z"/><path d="m257.473 69.1797h-2.91v1.4471l2.326.3912-3.091 9.7555-3.476-9.7555 2.3-.387v-1.4471h-8.191v1.4471l2.36.3618-3.523 9.9027-3.227-9.9153 2.411-.3492v-1.4471h-8.636v1.4471l1.798.2987 5.62 15.1695h1.945l4.343-11.8798c.74 2.3852 1.912 5.6707 4.335 11.8798h1.945l5.265-15.0938 1.929-.3702v-1.4471h-3.527z"/><path d="m114.096 57.4979-86.1809-57.4979v18.6233l-27.9151-18.6233v115l27.9151-18.6233v18.6233l86.1809-57.4979zm-83.7832-53.02612 79.4782 53.03032-79.4782 53.0299v-15.7539l55.8682-37.276-55.8682-37.276zm51.5632 53.03032-51.5632 34.4028v-68.8098l51.5632 34.4028zm-79.47821 53.0259v-106.05622l25.51731 17.02472v72.007z"/></g></svg>