<?xml version="1.0" encoding="utf-8"?>
<!-- generated by https://loading.io/ -->
<svg xml:space="preserve" viewBox="0 0 100 100" y="0" x="0"
  xmlns="http://www.w3.org/2000/svg" id="Layer_1" version="1.1" width="200px" height="200px"
  xmlns:xlink="http://www.w3.org/1999/xlink">
  <g class="ldl-scale">
    <path fill="#d65a62" d="M50 27.5c-2.2 0-4-1.8-4-4v-12c0-2.2 1.8-4 4-4s4 1.8 4 4v12c0 2.2-1.8 4-4 4z" style="fill:rgb(255, 255, 255);" ></path>
    <path fill="#ea7c60" d="M34.1 34.1c-1.6 1.6-4.1 1.6-5.7 0l-8.5-8.5c-1.6-1.6-1.6-4.1 0-5.7 1.6-1.6 4.1-1.6 5.7 0l8.5 8.5c1.6 1.6 1.6 4.1 0 5.7z" style="fill:rgb(255, 255, 255);" ></path>
    <path fill="#f0af6b" d="M27.5 50c0 2.2-1.8 4-4 4h-12c-2.2 0-4-1.8-4-4s1.8-4 4-4h12c2.2 0 4 1.8 4 4z" style="fill:rgb(255, 255, 255);" ></path>
    <path fill="#a8b980" d="M34.1 65.9c1.6 1.6 1.6 4.1 0 5.7l-8.5 8.5c-1.6 1.6-4.1 1.6-5.7 0-1.6-1.6-1.6-4.1 0-5.7l8.5-8.5c1.6-1.6 4.1-1.6 5.7 0z" style="fill:rgb(255, 255, 255);" ></path>
    <path fill="#d65a62" d="M50 72.5c2.2 0 4 1.8 4 4v12c0 2.2-1.8 4-4 4s-4-1.8-4-4v-12c0-2.2 1.8-4 4-4z" style="fill:rgb(255, 255, 255);" ></path>
    <path fill="#ea7c60" d="M65.9 65.9c1.6-1.6 4.1-1.6 5.7 0l8.5 8.5c1.6 1.6 1.6 4.1 0 5.7-1.6 1.6-4.1 1.6-5.7 0l-8.5-8.5c-1.6-1.6-1.6-4.1 0-5.7z" style="fill:rgb(255, 255, 255);" ></path>
    <path fill="#f0af6b" d="M72.5 50c0-2.2 1.8-4 4-4h12c2.2 0 4 1.8 4 4s-1.8 4-4 4h-12c-2.2 0-4-1.8-4-4z" style="fill:rgb(255, 255, 255);" ></path>
    <path fill="#a8b980" d="M65.9 34.1c-1.6-1.6-1.6-4.1 0-5.7l8.5-8.5c1.6-1.6 4.1-1.6 5.7 0 1.6 1.6 1.6 4.1 0 5.7l-8.5 8.5c-1.6 1.6-4.1 1.6-5.7 0z" style="fill:rgb(255, 255, 255);" ></path>
  </g>
</svg>
